HIERARCHY
ROOT mug1
{
	OFFSET 0.000000 0.000000 0.000000
	CHANNELS 6 Xposition Yposition Zposition Yrotation Xrotation Zrotation
	End Site
	{
		OFFSET 0.000000 0.000000 0.000000
	}
}
MOTION
Frames: 120
Frame Time: 0.008333334
1.940491 3.499780 2.909945 -137.851800 3.256904 4.331108 
1.940994 3.500458 2.909095 -137.405500 3.162001 4.459395 
1.942466 3.499997 2.907985 -136.910100 3.243491 4.436151 
1.943278 3.499800 2.907020 -136.475000 3.126805 4.465647 
1.944469 3.499975 2.905365 -135.927100 3.115547 4.435478 
1.945135 3.499692 2.904527 -135.326200 3.150110 4.428490 
1.945755 3.499854 2.902927 -134.709300 3.124076 4.468478 
1.946876 3.499465 2.901115 -134.154300 3.101030 4.478930 
1.948344 3.499266 2.899250 -133.576700 3.037928 4.421990 
1.949598 3.499132 2.898101 -133.041100 2.976043 4.458262 
1.951351 3.499066 2.896398 -132.508800 3.111284 4.373181 
1.953337 3.498732 2.894564 -131.887800 3.056342 4.430193 
1.954272 3.498636 2.893053 -131.255900 3.053113 4.433628 
1.955337 3.498918 2.890826 -130.573000 2.969086 4.451013 
1.955315 3.499056 2.889494 -129.757200 2.882751 4.541987 
1.955321 3.499566 2.887808 -128.971300 2.730233 4.580789 
1.955161 3.499332 2.885978 -128.130600 2.712087 4.497187 
1.953942 3.499060 2.885442 -127.399900 2.617632 4.529744 
1.954190 3.498401 2.883313 -126.655900 2.761772 4.425909 
1.953770 3.498646 2.881434 -126.031900 2.620803 4.433082 
1.953281 3.498012 2.879644 -125.427700 2.657533 4.371609 
1.952692 3.498321 2.877805 -124.857100 2.574513 4.427210 
1.952729 3.497830 2.876238 -124.342000 2.652867 4.333228 
1.952224 3.497550 2.874110 -123.842300 2.684123 4.346517 
1.950920 3.497715 2.870961 -123.247200 2.742234 4.333885 
1.950062 3.497629 2.867554 -122.572800 2.727677 4.370345 
1.948374 3.497714 2.864935 -121.950600 2.693082 4.439186 
1.946566 3.497282 2.861814 -121.339200 2.543762 4.384172 
1.945149 3.497714 2.858717 -120.751900 2.628617 4.444714 
1.943019 3.497520 2.855562 -120.208400 2.397725 4.434347 
1.941969 3.497651 2.852252 -119.659500 2.273957 4.525075 
1.941489 3.497143 2.849309 -119.106300 2.222920 4.555545 
1.940629 3.497592 2.845637 -118.564600 2.313128 4.556329 
1.940959 3.497383 2.841928 -117.929600 2.275294 4.532153 
1.940662 3.497100 2.838280 -117.302300 2.231571 4.515347 
1.940892 3.496588 2.834491 -116.715400 2.301807 4.409609 
1.941849 3.496341 2.830094 -116.125200 2.338080 4.408284 
1.942073 3.495912 2.825436 -115.718400 2.206031 4.407591 
1.942677 3.495782 2.820629 -115.369000 2.148904 4.480691 
1.944910 3.495802 2.815793 -115.000700 2.327028 4.432265 
1.945913 3.495240 2.810377 -114.789000 2.203474 4.470931 
1.946525 3.495550 2.805637 -114.624300 2.287545 4.514102 
1.946153 3.494910 2.802016 -114.576600 2.197582 4.410424 
1.945509 3.495170 2.798680 -114.570800 2.154200 4.440085 
1.944895 3.495450 2.797072 -114.580200 2.106660 4.507372 
1.944736 3.495579 2.796511 -114.600600 2.133863 4.528922 
1.944918 3.495621 2.797060 -114.592300 2.115627 4.536340 
1.944891 3.495661 2.797216 -114.579300 2.069464 4.535521 
1.944845 3.495510 2.797426 -114.598800 2.097534 4.542321 
1.945236 3.495490 2.797389 -114.552100 2.189299 4.509362 
1.944951 3.495604 2.797428 -114.572700 2.097497 4.532919 
1.945529 3.495213 2.797733 -114.580800 2.162964 4.490294 
1.945330 3.495134 2.797649 -114.520200 2.255844 4.463909 
1.944967 3.495210 2.797511 -114.553800 2.136385 4.485534 
1.945053 3.495094 2.797458 -114.560000 2.147033 4.500764 
1.945279 3.495181 2.797107 -114.503300 2.224258 4.471054 
1.945016 3.495192 2.797101 -114.547600 2.139800 4.503216 
1.945054 3.495309 2.796896 -114.537500 2.166326 4.493529 
1.945326 3.495113 2.797014 -114.520400 2.205910 4.474991 
1.945286 3.495618 2.797154 -114.547500 2.161501 4.516615 
1.945765 3.495166 2.797203 -114.537000 2.266535 4.471486 
1.945005 3.495402 2.797003 -114.576500 2.082923 4.508798 
1.945623 3.495132 2.797140 -114.544300 2.176713 4.489021 
1.945509 3.495357 2.797247 -114.528300 2.178685 4.510506 
1.945301 3.495342 2.797550 -114.552000 2.170809 4.510447 
1.945260 3.495101 2.796868 -114.581200 2.201829 4.479017 
1.945191 3.495090 2.796446 -114.573100 2.204599 4.480833 
1.944832 3.495351 2.795847 -114.578100 2.205425 4.489994 
1.944546 3.495295 2.794937 -114.586400 2.165138 4.518411 
1.944793 3.495271 2.794272 -114.586800 2.146882 4.499018 
1.944802 3.495095 2.794064 -114.556700 2.167869 4.495233 
1.944951 3.495213 2.793179 -114.563400 2.087662 4.538673 
1.944862 3.495271 2.792623 -114.587400 2.082807 4.546721 
1.945229 3.494955 2.792038 -114.562300 2.100919 4.515672 
1.945279 3.494514 2.791526 -114.542700 2.121718 4.493355 
1.944956 3.494737 2.790944 -114.587800 2.147984 4.531772 
1.944927 3.494786 2.790654 -114.562400 2.137166 4.535897 
1.944897 3.494780 2.790465 -114.568100 2.139441 4.536191 
1.944998 3.494768 2.790411 -114.565600 2.137930 4.536076 
1.945113 3.494662 2.790516 -114.538400 2.165677 4.521522 
1.945295 3.494395 2.790509 -114.519400 2.145813 4.488584 
1.945258 3.494338 2.791224 -114.555500 2.114670 4.471183 
1.945592 3.494517 2.791951 -114.530200 2.220042 4.447648 
1.945579 3.494645 2.792327 -114.506100 2.256765 4.448029 
1.945625 3.494465 2.793046 -114.511100 2.293804 4.421392 
1.945642 3.494098 2.793989 -114.488100 2.327544 4.372912 
1.945574 3.494562 2.794571 -114.524800 2.251632 4.416123 
1.945896 3.494894 2.795409 -114.509400 2.370443 4.409400 
1.945134 3.495167 2.796674 -114.562600 2.107923 4.504525 
1.945251 3.495186 2.797190 -114.567300 2.104090 4.510419 
1.945703 3.495007 2.797663 -114.537200 2.190321 4.435563 
1.946100 3.494954 2.798496 -114.549700 2.204398 4.450039 
1.946050 3.494905 2.798973 -114.538300 2.204983 4.452623 
1.946056 3.495017 2.799381 -114.541700 2.207837 4.451436 
1.946146 3.495134 2.799794 -114.540800 2.223778 4.431529 
1.946144 3.494848 2.799951 -114.508300 2.287129 4.385733 
1.946133 3.494946 2.800508 -114.484300 2.292106 4.412463 
1.946041 3.495138 2.800250 -114.512600 2.306520 4.445584 
1.946173 3.494705 2.800410 -114.468700 2.371620 4.375683 
1.944467 3.495357 2.799788 -114.469700 2.260559 4.419861 
1.941755 3.495776 2.798592 -114.357000 2.353305 4.388321 
1.938190 3.495783 2.795980 -114.046900 2.249213 4.455192 
1.934081 3.495404 2.792674 -113.614400 2.183059 4.501675 
1.932311 3.494330 2.787041 -113.154800 2.075291 4.453909 
1.931340 3.494427 2.778690 -112.812600 2.048749 4.585650 
1.929916 3.494841 2.768639 -112.391200 1.941762 4.646367 
1.928092 3.494447 2.760183 -111.808800 1.889783 4.591776 
1.925260 3.494003 2.750453 -111.220600 1.864684 4.543087 
1.923127 3.493369 2.742928 -110.568600 1.938916 4.504397 
1.922337 3.493124 2.736217 -109.858900 1.811014 4.513314 
1.921678 3.492956 2.730080 -109.062800 1.882252 4.534670 
1.920677 3.492887 2.724240 -108.212400 1.764380 4.560678 
1.920449 3.492684 2.717539 -107.140800 1.731979 4.504270 
1.919051 3.492504 2.709899 -105.879400 1.561133 4.530788 
1.917386 3.491633 2.701178 -104.505500 1.559787 4.467211 
1.914653 3.491256 2.692748 -103.031600 1.447675 4.505178 
1.910754 3.491238 2.683362 -101.536900 1.306656 4.522870 
1.908416 3.491054 2.673659 -99.824650 1.349831 4.469522 
1.904381 3.490958 2.665383 -98.358580 1.233724 4.407131 
1.900000 3.490505 2.656716 -96.910950 1.061754 4.411519 
